<svg width="24" height="11" viewBox="0 0 24 11" fill="none" xmlns="http://www.w3.org/2000/svg">
<path d="M19.0942 2.63253C19.8067 1.74464 20.1424 1.0451 20.1424 1.0451L19.0942 2.63253ZM19.0942 2.63253C18.4165 3.47719 17.398 4.49239 16.0034 5.23799M19.0942 2.63253L16.0034 5.23799M19.0942 2.63253L22.2388 4.18977M11.7566 6.28621C10.0711 6.28621 8.66213 5.85414 7.50988 5.23799M11.7566 6.28621L7.50988 5.23799M11.7566 6.28621C13.4422 6.28621 14.8511 5.85414 16.0034 5.23799M11.7566 6.28621L16.0034 5.23799M11.7566 6.28621V9.95499M7.50988 5.23799L4.41908 8.38266M7.50988 5.23799C6.18974 4.53212 5.20655 3.58474 4.53048 2.76922M7.50988 5.23799L4.53048 2.76922M16.0034 5.23799L18.5701 8.38266M4.53048 2.76922C3.74158 1.81746 3.37086 1.0451 3.37086 1.0451L4.53048 2.76922ZM4.53048 2.76922L1.27441 4.18977" stroke="#3F414E" stroke-width="2" stroke-linecap="round" stroke-linejoin="round"/>
</svg>
